<svg width="22" height="24" viewBox="0 0 22 24" fill="none" xmlns="http://www.w3.org/2000/svg">
<path d="M21.5 9.84375V5.76562C21.4531 5.76562 21.4531 5.76562 21.4531 5.76562C20.3281 5.76562 19.25 5.4375 18.3594 4.82812C17.0469 3.98438 16.1094 2.625 15.8281 1.07812C15.7344 0.75 15.7344 0.421875 15.7344 0.09375C15.7344 0.046875 15.7344 0.046875 15.7344 0H11.6094V16.4062C11.6094 18.3281 10.0156 19.9219 8.09375 19.9219C6.17188 19.9219 4.57812 18.3281 4.57812 16.4062C4.57812 14.4844 6.17188 12.8906 8.09375 12.8906C8.46875 12.8906 8.79688 12.9375 9.17188 13.0781V8.85938C8.79688 8.8125 8.46875 8.76562 8.09375 8.76562C3.875 8.76562 0.5 12.1875 0.5 16.4062C0.5 20.625 3.875 24 8.09375 24C12.3125 24 15.7344 20.625 15.7344 16.4062V8.01562C17.3281 9.1875 19.2969 9.84375 21.4531 9.84375H21.5Z" fill="#b7b7b7"/>
</svg>
