<svg width="31" height="36" viewBox="0 0 31 36" fill="none" xmlns="http://www.w3.org/2000/svg">
<g filter="url(#filter0_d_9_2530)">
<path d="M11.3082 11.3082C11.1108 11.5055 11 11.7732 11 12.0523C11 12.3314 11.1108 12.599 11.3082 12.7964L16.5181 18.0064L11.3082 23.2163C11.1164 23.4148 11.0104 23.6807 11.0127 23.9566C11.0151 24.2326 11.1258 24.4966 11.321 24.6917C11.5161 24.8869 11.7801 24.9976 12.0561 25C12.332 25.0024 12.5979 24.8963 12.7964 24.7045L18.7505 18.7505C18.9478 18.5531 19.0586 18.2854 19.0586 18.0064C19.0586 17.7273 18.9478 17.4596 18.7505 17.2622L12.7964 11.3082C12.599 11.1108 12.3314 11 12.0523 11C11.7732 11 11.5055 11.1108 11.3082 11.3082Z" fill="#D7FA19"/>
<path d="M17.2252 18.0064L16.8717 18.3599L11.6653 23.5663C11.5662 23.6702 11.5115 23.8086 11.5127 23.9523C11.514 24.0972 11.5721 24.2357 11.6745 24.3382C11.777 24.4406 11.9156 24.4987 12.0604 24.5C12.2041 24.5012 12.3425 24.4465 12.4464 24.3474L18.3969 18.397C18.3969 18.397 18.3969 18.3969 18.3969 18.3969C18.5005 18.2933 18.5586 18.1528 18.5586 18.0064C18.5586 17.8599 18.5005 17.7194 18.3969 17.6158L18.3969 17.6157M17.2252 18.0064L18.3969 17.6157M17.2252 18.0064L16.8717 17.6528L11.6618 12.4429M17.2252 18.0064L11.6618 12.4429M18.3969 17.6157L12.4429 11.6618C12.4429 11.6618 12.4429 11.6617 12.4429 11.6617C12.3393 11.5582 12.1988 11.5 12.0523 11.5C11.9058 11.5 11.7654 11.5581 11.6618 11.6617C11.6617 11.6617 11.6617 11.6617 11.6617 11.6618M18.3969 17.6157L11.3082 12.7964C11.1108 12.599 11 12.3314 11 12.0523C11 11.7732 11.1108 11.5055 11.3082 11.3082L11.6617 11.6618M11.6617 11.6618C11.5581 11.7654 11.5 11.9058 11.5 12.0523C11.5 12.1988 11.5582 12.3393 11.6617 12.4429C11.6617 12.4429 11.6618 12.4429 11.6618 12.4429M11.6617 11.6618L11.6618 12.4429" stroke="#AE16D7"/>
</g>
<defs>
<filter id="filter0_d_9_2530" x="0" y="0" width="30.0586" height="36" filterUnits="userSpaceOnUse" color-interpolation-filters="sRGB">
<feFlood flood-opacity="0" result="BackgroundImageFix"/>
<feColorMatrix in="SourceAlpha" type="matrix" values="0 0 0 0 0 0 0 0 0 0 0 0 0 0 0 0 0 0 127 0" result="hardAlpha"/>
<feMorphology radius="1" operator="dilate" in="SourceAlpha" result="effect1_dropShadow_9_2530"/>
<feOffset/>
<feGaussianBlur stdDeviation="5"/>
<feComposite in2="hardAlpha" operator="out"/>
<feColorMatrix type="matrix" values="0 0 0 0 0.843137 0 0 0 0 0.980392 0 0 0 0 0.0980392 0 0 0 0.4 0"/>
<feBlend mode="normal" in2="BackgroundImageFix" result="effect1_dropShadow_9_2530"/>
<feBlend mode="normal" in="SourceGraphic" in2="effect1_dropShadow_9_2530" result="shape"/>
</filter>
</defs>
</svg>
