<svg width="31" height="30" viewBox="0 0 31 30" fill="none" xmlns="http://www.w3.org/2000/svg">
<path d="M10.375 26.9688C11.2897 26.9688 12.0312 26.2272 12.0312 25.3125C12.0312 24.3978 11.2897 23.6562 10.375 23.6562C9.46028 23.6562 8.71875 24.3978 8.71875 25.3125C8.71875 26.2272 9.46028 26.9688 10.375 26.9688Z" fill="white" stroke="white" stroke-width="0.5"/>
<path d="M22.5625 26.9688C23.4772 26.9688 24.2188 26.2272 24.2188 25.3125C24.2188 24.3978 23.4772 23.6562 22.5625 23.6562C21.6478 23.6562 20.9062 24.3978 20.9062 25.3125C20.9062 26.2272 21.6478 26.9688 22.5625 26.9688Z" fill="white" stroke="white" stroke-width="0.5"/>
<path d="M5.95703 8.4375H26.9805L23.8867 19.2656C23.7763 19.6586 23.54 20.0045 23.2139 20.2501C22.8879 20.4956 22.4902 20.6274 22.082 20.625H10.8555C10.4473 20.6274 10.0496 20.4956 9.72358 20.2501C9.39754 20.0045 9.16116 19.6586 9.05078 19.2656L4.80859 4.42969C4.75253 4.2337 4.63412 4.06132 4.47129 3.93867C4.30847 3.81602 4.1101 3.74979 3.90625 3.75H1.9375" stroke="white" stroke-width="3" stroke-linecap="round" stroke-linejoin="round"/>
</svg>
