<svg width="32" height="33" viewBox="0 0 32 33" fill="none" xmlns="http://www.w3.org/2000/svg">
<rect y="0.5" width="32" height="32" rx="16" fill="#754DFD"/>
<path fill-rule="evenodd" clip-rule="evenodd" d="M16 0.5C7.16345 0.5 0 7.66344 0 16.5C0 25.3366 7.16345 32.5 16 32.5C24.8365 32.5 32 25.3366 32 16.5C32 7.66344 24.8365 0.5 16 0.5ZM18.4159 8.5C18.8038 8.5 19.1125 8.81681 19.1813 9.19851C19.3781 10.2461 19.998 11.145 20.8592 11.7059C21.2978 11.9932 21.7956 12.1915 22.3311 12.2777C22.6653 12.3316 22.9414 12.6008 22.9413 12.9393V13.691C22.9413 14.4556 22.2794 15.087 21.5326 14.9232C20.4314 14.6816 19.1182 15.4159 19.1182 16.5433V19.4366C19.1182 22.2265 16.8466 24.5 14.0591 24.5C12.9827 24.5 11.9805 24.1581 11.1602 23.5824C9.85367 22.6648 9 21.1491 9 19.4366C9 16.643 11.2679 14.3732 14.0554 14.3769C14.159 14.3769 14.2612 14.3806 14.3623 14.3872C14.5783 14.4014 14.7384 14.5869 14.7384 14.8034V15.0742C14.7384 15.0749 14.738 15.0755 14.7374 15.0758L14.7362 15.0763C14.7348 15.077 14.7353 15.0791 14.7369 15.0791C14.7377 15.079 14.7383 15.0797 14.7383 15.0805V16.5396C14.7383 16.8841 14.3999 17.1259 14.0554 17.1259C12.7823 17.1259 11.7467 18.1624 11.7467 19.4366C11.7467 20.312 12.2374 21.0719 12.9556 21.4669C12.9758 21.478 12.9934 21.4932 13.0072 21.5116C13.0085 21.5133 13.0108 21.5118 13.0097 21.5099C13.0062 21.504 13.0025 21.498 12.9986 21.4922C12.9966 21.489 13.0001 21.485 13.0034 21.4868C13.323 21.6533 13.6821 21.7473 14.0628 21.7473C15.3062 21.7473 16.3233 20.7554 16.3678 19.5221L16.3711 9.87312C16.3713 9.11469 16.9862 8.5 17.7446 8.5H18.4159Z" fill="white"/>
</svg>
