<svg width="32" height="33" viewBox="0 0 32 33" fill="none" xmlns="http://www.w3.org/2000/svg">
<rect y="0.5" width="32" height="32" rx="16" fill="#754DFD"/>
<path fill-rule="evenodd" clip-rule="evenodd" d="M0 16.5C0 7.66344 7.16344 0.5 16 0.5C24.8366 0.5 32 7.66344 32 16.5C32 25.3366 24.8366 32.5 16 32.5C7.16344 32.5 0 25.3366 0 16.5ZM13.1896 20.3016C13.1896 23.2646 14.9774 24.5 17.3879 24.5H20.0596V21.3562H18.6434C17.6491 21.3562 17.0264 20.9244 17.0264 19.689V15.5609H19.9391V12.5778H17.0264V8.5H14.5255C14.4149 10.2979 13.4105 12.3669 11 12.9896V15.5609H13.1896V20.3016Z" fill="white"/>
</svg>
