<svg width="49" height="48" viewBox="0 0 49 48" fill="none" xmlns="http://www.w3.org/2000/svg">
<path d="M6.28979 24H24.2898V27H6.28979V24ZM3.28979 16.5H18.2898V19.5H3.28979V16.5Z" fill="black"/>
<path d="M45.1683 24.909L40.6683 14.409C40.5528 14.1391 40.3606 13.9091 40.1156 13.7475C39.8705 13.5859 39.5834 13.4998 39.2898 13.5H34.7898V10.5C34.7898 10.1022 34.6318 9.72064 34.3505 9.43934C34.0692 9.15804 33.6876 9 33.2898 9H9.28981V12H31.7898V30.834C31.1063 31.2309 30.5081 31.7592 30.0298 32.3884C29.5515 33.0176 29.2024 33.7352 29.0028 34.5H19.5768C19.2117 33.086 18.3435 31.8537 17.1348 31.0341C15.9261 30.2145 14.46 29.8638 13.0113 30.0478C11.5626 30.2318 10.2307 30.9379 9.26533 32.0337C8.29994 33.1294 7.76733 34.5396 7.76733 36C7.76733 37.4604 8.29994 38.8706 9.26533 39.9663C10.2307 41.0621 11.5626 41.7682 13.0113 41.9522C14.46 42.1362 15.9261 41.7855 17.1348 40.9659C18.3435 40.1463 19.2117 38.914 19.5768 37.5H29.0028C29.3291 38.7874 30.0754 39.9292 31.1235 40.7448C32.1716 41.5604 33.4617 42.0032 34.7898 42.0032C36.1179 42.0032 37.408 41.5604 38.4561 40.7448C39.5043 39.9292 40.2505 38.7874 40.5768 37.5H43.7898C44.1876 37.5 44.5692 37.342 44.8505 37.0607C45.1318 36.7794 45.2898 36.3978 45.2898 36V25.5C45.2899 25.2968 45.2485 25.0957 45.1683 24.909ZM13.7898 39C13.1965 39 12.6164 38.8241 12.1231 38.4944C11.6298 38.1648 11.2452 37.6962 11.0182 37.1481C10.7911 36.5999 10.7317 35.9967 10.8475 35.4147C10.9632 34.8328 11.2489 34.2982 11.6685 33.8787C12.088 33.4591 12.6226 33.1734 13.2045 33.0576C13.7865 32.9419 14.3897 33.0013 14.9379 33.2284C15.486 33.4554 15.9546 33.8399 16.2842 34.3333C16.6139 34.8266 16.7898 35.4067 16.7898 36C16.789 36.7954 16.4727 37.558 15.9103 38.1204C15.3478 38.6829 14.5852 38.9992 13.7898 39ZM34.7898 16.5H38.2998L41.5158 24H34.7898V16.5ZM34.7898 39C34.1965 39 33.6164 38.8241 33.1231 38.4944C32.6298 38.1648 32.2452 37.6962 32.0182 37.1481C31.7911 36.5999 31.7317 35.9967 31.8475 35.4147C31.9632 34.8328 32.2489 34.2982 32.6685 33.8787C33.088 33.4591 33.6226 33.1734 34.2045 33.0576C34.7865 32.9419 35.3897 33.0013 35.9379 33.2284C36.486 33.4554 36.9546 33.8399 37.2842 34.3333C37.6139 34.8266 37.7898 35.4067 37.7898 36C37.789 36.7954 37.4727 37.558 36.9103 38.1204C36.3478 38.6829 35.5852 38.9992 34.7898 39ZM42.2898 34.5H40.5768C40.2464 33.2151 39.499 32.0763 38.4517 31.2619C37.4044 30.4475 36.1165 30.0037 34.7898 30V27H42.2898V34.5Z" fill="black"/>
</svg>
