<svg width="44" height="36" viewBox="0 0 44 36" fill="none" xmlns="http://www.w3.org/2000/svg">
<path d="M9 12.0253L10.5937 6.23153C11.028 4.65265 12.6481 3.71372 14.234 4.12186L39.9038 10.7284C41.581 11.16 42.5454 12.9181 42.0081 14.5645L37.44 28.5612C36.9148 30.1706 35.1626 31.0269 33.5701 30.4524L31 29.5253" stroke="black" stroke-width="2"/>
<path d="M0 15.0253C0 13.9644 0.421427 12.947 1.17157 12.1968C1.92172 11.4467 2.93913 11.0253 4 11.0253H28C29.0609 11.0253 30.0783 11.4467 30.8284 12.1968C31.5786 12.947 32 13.9644 32 15.0253V31.0253C32 32.0861 31.5786 33.1035 30.8284 33.8537C30.0783 34.6038 29.0609 35.0253 28 35.0253H4C2.93913 35.0253 1.92172 34.6038 1.17157 33.8537C0.421427 33.1035 0 32.0861 0 31.0253V15.0253ZM4 13.0253C3.46957 13.0253 2.96086 13.236 2.58579 13.6111C2.21071 13.9861 2 14.4948 2 15.0253V17.0253H30V15.0253C30 14.4948 29.7893 13.9861 29.4142 13.6111C29.0391 13.236 28.5304 13.0253 28 13.0253H4ZM30 21.0253H2V31.0253C2 31.5557 2.21071 32.0644 2.58579 32.4395C2.96086 32.8146 3.46957 33.0253 4 33.0253H28C28.5304 33.0253 29.0391 32.8146 29.4142 32.4395C29.7893 32.0644 30 31.5557 30 31.0253V21.0253Z" fill="black"/>
<path d="M4 27.0253C4 26.4948 4.21071 25.9861 4.58579 25.6111C4.96086 25.236 5.46957 25.0253 6 25.0253H8C8.53043 25.0253 9.03914 25.236 9.41421 25.6111C9.78929 25.9861 10 26.4948 10 27.0253V29.0253C10 29.5557 9.78929 30.0644 9.41421 30.4395C9.03914 30.8146 8.53043 31.0253 8 31.0253H6C5.46957 31.0253 4.96086 30.8146 4.58579 30.4395C4.21071 30.0644 4 29.5557 4 29.0253V27.0253Z" fill="black"/>
</svg>
