<svg width="40" height="30" viewBox="0 0 40 30" fill="none" xmlns="http://www.w3.org/2000/svg">
<path fill-rule="evenodd" clip-rule="evenodd" d="M2.97168 0.145508H4.82936V29.8544H2.97168V0.145508Z" fill="#161615"/>
<path fill-rule="evenodd" clip-rule="evenodd" d="M5.41504 0.145508H5.99031V29.8544H5.41504V0.145508Z" fill="#161615"/>
<path fill-rule="evenodd" clip-rule="evenodd" d="M6.49268 0.145508H7.5227V29.8544H6.49268V0.145508Z" fill="#161615"/>
<path fill-rule="evenodd" clip-rule="evenodd" d="M8.51538 0.145508H9.09065V29.8544H8.51538V0.145508Z" fill="#161615"/>
<path fill-rule="evenodd" clip-rule="evenodd" d="M9.3418 0.145508H9.78519V29.8544H9.3418V0.145508Z" fill="#161615"/>
<path fill-rule="evenodd" clip-rule="evenodd" d="M1.55859 0.145508H2.13386V29.8544H1.55859V0.145508Z" fill="#161615"/>
<path fill-rule="evenodd" clip-rule="evenodd" d="M0.289795 0.145508H1.31982V29.8544H0.289795V0.145508Z" fill="#161615"/>
<path fill-rule="evenodd" clip-rule="evenodd" d="M12.8625 0.145508H14.7202V29.8544H12.8625V0.145508Z" fill="#161615"/>
<path fill-rule="evenodd" clip-rule="evenodd" d="M15.3059 0.145508H15.8834V29.8544H15.3082V0.145508H15.3059Z" fill="#161615"/>
<path fill-rule="evenodd" clip-rule="evenodd" d="M16.3826 0.145508H17.4126V29.8544H16.3826V0.145508Z" fill="#161615"/>
<path fill-rule="evenodd" clip-rule="evenodd" d="M18.4072 0.145508H18.9825V29.8544H18.4072V0.145508Z" fill="#161615"/>
<path fill-rule="evenodd" clip-rule="evenodd" d="M19.2349 0.145508H19.6783V29.8544H19.2349V0.145508Z" fill="#161615"/>
<path fill-rule="evenodd" clip-rule="evenodd" d="M11.4541 0.145508H12.0225V29.8544H11.4541V0.145508Z" fill="#161615"/>
<path fill-rule="evenodd" clip-rule="evenodd" d="M10.1809 0.145508H11.2109V29.8544H10.1809V0.145508Z" fill="#161615"/>
<path fill-rule="evenodd" clip-rule="evenodd" d="M20.407 0.145508H21.437V29.8544H20.407V0.145508Z" fill="#161615"/>
<path fill-rule="evenodd" clip-rule="evenodd" d="M22.4309 0.145508H23.0062V29.8544H22.4309V0.145508Z" fill="#161615"/>
<path fill-rule="evenodd" clip-rule="evenodd" d="M23.2561 0.145508H23.6995V29.8544H23.2561V0.145508Z" fill="#161615"/>
<path fill-rule="evenodd" clip-rule="evenodd" d="M25.364 0.145508H25.9393V29.8544H25.364V0.145508Z" fill="#161615"/>
<path fill-rule="evenodd" clip-rule="evenodd" d="M24.0952 0.145508H25.1252V29.8544H24.0952V0.145508Z" fill="#161615"/>
<path fill-rule="evenodd" clip-rule="evenodd" d="M26.7043 0.145508H27.2796V29.8544H26.7043V0.145508Z" fill="#161615"/>
<path fill-rule="evenodd" clip-rule="evenodd" d="M27.5308 0.145508H27.9742V29.8544H27.5308V0.145508Z" fill="#161615"/>
<path fill-rule="evenodd" clip-rule="evenodd" d="M29.6389 0.145508H30.2142V29.8544H29.6389V0.145508Z" fill="#161615"/>
<path fill-rule="evenodd" clip-rule="evenodd" d="M28.3687 0.145508H29.3987V29.8544H28.3687V0.145508Z" fill="#161615"/>
<path fill-rule="evenodd" clip-rule="evenodd" d="M30.7166 0.145508H32.5742V29.8544H30.7166V0.145508Z" fill="#161615"/>
<path fill-rule="evenodd" clip-rule="evenodd" d="M33.1619 0.145508H33.7303V29.8544H33.1619V0.145508Z" fill="#161615"/>
<path fill-rule="evenodd" clip-rule="evenodd" d="M34.2363 0.145508H35.2663V29.8544H34.2363V0.145508Z" fill="#161615"/>
<path fill-rule="evenodd" clip-rule="evenodd" d="M36.26 0.145508H36.8353V29.8544H36.26V0.145508Z" fill="#161615"/>
<path fill-rule="evenodd" clip-rule="evenodd" d="M37.083 0.145508H37.5264V29.8544H37.083V0.145508Z" fill="#161615"/>
<path fill-rule="evenodd" clip-rule="evenodd" d="M38.2598 0.145508H39.2898V29.8544H38.2598V0.145508Z" fill="#161615"/>
</svg>
