<svg width="44" height="44" viewBox="0 0 44 44" fill="none" xmlns="http://www.w3.org/2000/svg">
<path d="M27.971 30.0983L22.5781 24.7054C22.381 24.5083 22.1481 24.4725 22.0227 24.4725C21.8972 24.4725 21.6643 24.5083 21.4672 24.7054L16.0564 30.1162C15.4472 30.7254 14.4977 31.7108 11.3264 31.7108L17.9735 38.34C18.9813 39.3465 20.3475 39.9119 21.7718 39.9119C23.1962 39.9119 24.5623 39.3465 25.5702 38.34L32.2352 31.6929C30.6047 31.6929 29.2431 31.3704 27.971 30.0983ZM16.0564 13.8837L21.4672 19.2945C21.6106 19.4379 21.8256 19.5275 22.0227 19.5275C22.2197 19.5275 22.4347 19.4379 22.5781 19.2945L27.9352 13.9375C29.2072 12.6116 30.6585 12.307 32.2889 12.307L25.6239 5.65995C24.6161 4.65339 23.25 4.08801 21.8256 4.08801C20.4012 4.08801 19.0351 4.65339 18.0272 5.65995L11.3802 12.2891C14.5335 12.2891 15.501 13.3283 16.0564 13.8837Z" fill="black"/>
<path d="M38.1119 18.1479L34.0807 14.0987H31.8232C30.8557 14.0987 29.8882 14.4929 29.2253 15.1916L23.8503 20.5666C23.3486 21.0683 22.6857 21.3191 22.0228 21.3191C21.3402 21.3095 20.6868 21.0405 20.1953 20.5666L14.7845 15.1379C14.1036 14.457 13.1719 14.0629 12.1865 14.0629H9.55278L5.44987 18.1837C4.44331 19.1915 3.87793 20.5577 3.87793 21.982C3.87793 23.4064 4.44331 24.7725 5.44987 25.7804L9.55278 29.9012H12.2044C13.172 29.9012 14.1036 29.507 14.8024 28.8262L20.2132 23.4154C20.7149 22.9137 21.3778 22.6629 22.0407 22.6629C22.7036 22.6629 23.3665 22.9137 23.8682 23.4154L29.2611 28.8083C29.9419 29.4891 30.8736 29.8833 31.859 29.8833H34.1165L38.1478 25.8341C39.1586 24.8082 39.7222 23.4238 39.7155 21.9836C39.7088 20.5434 39.1323 19.1644 38.1119 18.1479Z" fill="black"/>
</svg>
