<svg width="104" height="78" viewBox="0 0 104 78" fill="none" xmlns="http://www.w3.org/2000/svg">
<g clip-path="url(#clip0_58_4309)">
<path d="M9.14812 72.4219C8.01412 72.4219 6.95712 72.2399 5.97712 71.8759C5.01112 71.4979 4.17112 70.9659 3.45712 70.2799C2.74312 69.5939 2.18312 68.7889 1.77712 67.8649C1.38512 66.9409 1.18912 65.9259 1.18912 64.8199C1.18912 63.7139 1.38512 62.6989 1.77712 61.7749C2.18312 60.8509 2.74312 60.0459 3.45712 59.3599C4.18512 58.6739 5.03212 58.1489 5.99812 57.7849C6.96412 57.4069 8.02112 57.2179 9.16912 57.2179C10.4431 57.2179 11.5911 57.4419 12.6131 57.8899C13.6491 58.3239 14.5171 58.9679 15.2171 59.8219L13.0331 61.8379C12.5291 61.2639 11.9691 60.8369 11.3531 60.5569C10.7371 60.2629 10.0651 60.1159 9.33712 60.1159C8.65112 60.1159 8.02112 60.2279 7.44712 60.4519C6.87312 60.6759 6.37612 60.9979 5.95612 61.4179C5.53612 61.8379 5.20712 62.3349 4.96912 62.9089C4.74512 63.4829 4.63312 64.1199 4.63312 64.8199C4.63312 65.5199 4.74512 66.1569 4.96912 66.7309C5.20712 67.3049 5.53612 67.8019 5.95612 68.2219C6.37612 68.6419 6.87312 68.9639 7.44712 69.1879C8.02112 69.4119 8.65112 69.5239 9.33712 69.5239C10.0651 69.5239 10.7371 69.3839 11.3531 69.1039C11.9691 68.8099 12.5291 68.3689 13.0331 67.7809L15.2171 69.7969C14.5171 70.6509 13.6491 71.3019 12.6131 71.7499C11.5911 72.1979 10.4361 72.4219 9.14812 72.4219ZM22.2698 72.3379C21.0658 72.3379 19.9948 72.0859 19.0568 71.5819C18.1328 71.0779 17.3978 70.3919 16.8518 69.5239C16.3198 68.6419 16.0538 67.6409 16.0538 66.5209C16.0538 65.3869 16.3198 64.3859 16.8518 63.5179C17.3978 62.6359 18.1328 61.9499 19.0568 61.4599C19.9948 60.9559 21.0658 60.7039 22.2698 60.7039C23.4598 60.7039 24.5238 60.9559 25.4618 61.4599C26.3998 61.9499 27.1348 62.6289 27.6668 63.4969C28.1988 64.3649 28.4648 65.3729 28.4648 66.5209C28.4648 67.6409 28.1988 68.6419 27.6668 69.5239C27.1348 70.3919 26.3998 71.0779 25.4618 71.5819C24.5238 72.0859 23.4598 72.3379 22.2698 72.3379ZM22.2698 69.6499C22.8158 69.6499 23.3058 69.5239 23.7398 69.2719C24.1738 69.0199 24.5168 68.6629 24.7688 68.2009C25.0208 67.7249 25.1468 67.1649 25.1468 66.5209C25.1468 65.8629 25.0208 65.3029 24.7688 64.8409C24.5168 64.3789 24.1738 64.0219 23.7398 63.7699C23.3058 63.5179 22.8158 63.3919 22.2698 63.3919C21.7238 63.3919 21.2338 63.5179 20.7998 63.7699C20.3658 64.0219 20.0158 64.3789 19.7498 64.8409C19.4978 65.3029 19.3718 65.8629 19.3718 66.5209C19.3718 67.1649 19.4978 67.7249 19.7498 68.2009C20.0158 68.6629 20.3658 69.0199 20.7998 69.2719C21.2338 69.5239 21.7238 69.6499 22.2698 69.6499ZM35.5056 72.3379C34.4416 72.3379 33.4826 72.0999 32.6286 71.6239C31.7746 71.1339 31.0956 70.4549 30.5916 69.5869C30.1016 68.7189 29.8566 67.6969 29.8566 66.5209C29.8566 65.3309 30.1016 64.3019 30.5916 63.4339C31.0956 62.5659 31.7746 61.8939 32.6286 61.4179C33.4826 60.9419 34.4416 60.7039 35.5056 60.7039C36.4576 60.7039 37.2906 60.9139 38.0046 61.3339C38.7186 61.7539 39.2716 62.3909 39.6636 63.2449C40.0556 64.0989 40.2516 65.1909 40.2516 66.5209C40.2516 67.8369 40.0626 68.9289 39.6846 69.7969C39.3066 70.6509 38.7606 71.2879 38.0466 71.7079C37.3466 72.1279 36.4996 72.3379 35.5056 72.3379ZM36.0726 69.6499C36.6046 69.6499 37.0876 69.5239 37.5216 69.2719C37.9556 69.0199 38.2986 68.6629 38.5506 68.2009C38.8166 67.7249 38.9496 67.1649 38.9496 66.5209C38.9496 65.8629 38.8166 65.3029 38.5506 64.8409C38.2986 64.3789 37.9556 64.0219 37.5216 63.7699C37.0876 63.5179 36.6046 63.3919 36.0726 63.3919C35.5266 63.3919 35.0366 63.5179 34.6026 63.7699C34.1686 64.0219 33.8186 64.3789 33.5526 64.8409C33.3006 65.3029 33.1746 65.8629 33.1746 66.5209C33.1746 67.1649 33.3006 67.7249 33.5526 68.2009C33.8186 68.6629 34.1686 69.0199 34.6026 69.2719C35.0366 69.5239 35.5266 69.6499 36.0726 69.6499ZM39.0336 72.1699V69.8599L39.0966 66.4999L38.8866 63.1609V56.5879H42.1626V72.1699H39.0336ZM50.8016 72.3379C49.5136 72.3379 48.3796 72.0859 47.3996 71.5819C46.4336 71.0779 45.6846 70.3919 45.1526 69.5239C44.6206 68.6419 44.3546 67.6409 44.3546 66.5209C44.3546 65.3869 44.6136 64.3859 45.1316 63.5179C45.6636 62.6359 46.3846 61.9499 47.2946 61.4599C48.2046 60.9559 49.2336 60.7039 50.3816 60.7039C51.4876 60.7039 52.4816 60.9419 53.3636 61.4179C54.2596 61.8799 54.9666 62.5519 55.4846 63.4339C56.0026 64.3019 56.2616 65.3449 56.2616 66.5629C56.2616 66.6889 56.2546 66.8359 56.2406 67.0039C56.2266 67.1579 56.2126 67.3049 56.1986 67.4449H47.0216V65.5339H54.4766L53.2166 66.1009C53.2166 65.5129 53.0976 65.0019 52.8596 64.5679C52.6216 64.1339 52.2926 63.7979 51.8726 63.5599C51.4526 63.3079 50.9626 63.1819 50.4026 63.1819C49.8426 63.1819 49.3456 63.3079 48.9116 63.5599C48.4916 63.7979 48.1626 64.1409 47.9246 64.5889C47.6866 65.0229 47.5676 65.5409 47.5676 66.1429V66.6469C47.5676 67.2629 47.7006 67.8089 47.9666 68.2849C48.2466 68.7469 48.6316 69.1039 49.1216 69.3559C49.6256 69.5939 50.2136 69.7129 50.8856 69.7129C51.4876 69.7129 52.0126 69.6219 52.4606 69.4399C52.9226 69.2579 53.3426 68.9849 53.7206 68.6209L55.4636 70.5109C54.9456 71.0989 54.2946 71.5539 53.5106 71.8759C52.7266 72.1839 51.8236 72.3379 50.8016 72.3379ZM63.0627 72.3379C61.7327 72.3379 60.6967 72.0019 59.9547 71.3299C59.2127 70.6439 58.8417 69.6289 58.8417 68.2849V58.3729H62.1177V68.2429C62.1177 68.7189 62.2437 69.0899 62.4957 69.3559C62.7477 69.6079 63.0907 69.7339 63.5247 69.7339C64.0427 69.7339 64.4837 69.5939 64.8477 69.3139L65.7297 71.6239C65.3937 71.8619 64.9877 72.0439 64.5117 72.1699C64.0497 72.2819 63.5667 72.3379 63.0627 72.3379ZM57.0987 63.6439V61.1239H64.9317V63.6439H57.0987ZM72.827 72.3379C71.539 72.3379 70.405 72.0859 69.425 71.5819C68.459 71.0779 67.71 70.3919 67.178 69.5239C66.646 68.6419 66.38 67.6409 66.38 66.5209C66.38 65.3869 66.639 64.3859 67.157 63.5179C67.689 62.6359 68.41 61.9499 69.32 61.4599C70.23 60.9559 71.259 60.7039 72.407 60.7039C73.513 60.7039 74.507 60.9419 75.389 61.4179C76.285 61.8799 76.992 62.5519 77.51 63.4339C78.028 64.3019 78.287 65.3449 78.287 66.5629C78.287 66.6889 78.28 66.8359 78.266 67.0039C78.252 67.1579 78.238 67.3049 78.224 67.4449H69.047V65.5339H76.502L75.242 66.1009C75.242 65.5129 75.123 65.0019 74.885 64.5679C74.647 64.1339 74.318 63.7979 73.898 63.5599C73.478 63.3079 72.988 63.1819 72.428 63.1819C71.868 63.1819 71.371 63.3079 70.937 63.5599C70.517 63.7979 70.188 64.1409 69.95 64.5889C69.712 65.0229 69.593 65.5409 69.593 66.1429V66.6469C69.593 67.2629 69.726 67.8089 69.992 68.2849C70.272 68.7469 70.657 69.1039 71.147 69.3559C71.651 69.5939 72.239 69.7129 72.911 69.7129C73.513 69.7129 74.038 69.6219 74.486 69.4399C74.948 69.2579 75.368 68.9849 75.746 68.6209L77.489 70.5109C76.971 71.0989 76.32 71.5539 75.536 71.8759C74.752 72.1839 73.849 72.3379 72.827 72.3379ZM85.9281 72.3379C84.7101 72.3379 83.6251 72.0929 82.6731 71.6029C81.7211 71.0989 80.9721 70.4059 80.4261 69.5239C79.8941 68.6419 79.6281 67.6409 79.6281 66.5209C79.6281 65.3869 79.8941 64.3859 80.4261 63.5179C80.9721 62.6359 81.7211 61.9499 82.6731 61.4599C83.6251 60.9559 84.7101 60.7039 85.9281 60.7039C87.1181 60.7039 88.1541 60.9559 89.0361 61.4599C89.9181 61.9499 90.5691 62.6569 90.9891 63.5809L88.4481 64.9459C88.1541 64.4139 87.7831 64.0219 87.3351 63.7699C86.9011 63.5179 86.4251 63.3919 85.9071 63.3919C85.3471 63.3919 84.8431 63.5179 84.3951 63.7699C83.9471 64.0219 83.5901 64.3789 83.3241 64.8409C83.0721 65.3029 82.9461 65.8629 82.9461 66.5209C82.9461 67.1789 83.0721 67.7389 83.3241 68.2009C83.5901 68.6629 83.9471 69.0199 84.3951 69.2719C84.8431 69.5239 85.3471 69.6499 85.9071 69.6499C86.4251 69.6499 86.9011 69.5309 87.3351 69.2929C87.7831 69.0409 88.1541 68.6419 88.4481 68.0959L90.9891 69.4819C90.5691 70.3919 89.9181 71.0989 89.0361 71.6029C88.1541 72.0929 87.1181 72.3379 85.9281 72.3379ZM99.6808 60.7039C100.577 60.7039 101.375 60.8859 102.075 61.2499C102.789 61.5999 103.349 62.1459 103.755 62.8879C104.161 63.6159 104.364 64.5539 104.364 65.7019V72.1699H101.088V66.2059C101.088 65.2959 100.885 64.6239 100.479 64.1899C100.087 63.7559 99.5268 63.5389 98.7988 63.5389C98.2808 63.5389 97.8118 63.6509 97.3918 63.8749C96.9858 64.0849 96.6638 64.4139 96.4258 64.8619C96.2018 65.3099 96.0898 65.8839 96.0898 66.5839V72.1699H92.8138V56.5879H96.0898V64.0009L95.3548 63.0559C95.7608 62.2999 96.3418 61.7189 97.0978 61.3129C97.8538 60.9069 98.7148 60.7039 99.6808 60.7039Z" fill="white"/>
<path d="M33.5999 49.0499C32.4693 48.2292 31.4059 47.3197 30.4199 46.3299C27.929 43.8472 25.9518 40.898 24.6012 37.6508C23.2506 34.4036 22.553 30.9222 22.5484 27.4053C22.5437 23.8884 23.2321 20.4051 24.5741 17.1544C25.9162 13.9037 27.8856 10.9493 30.3699 8.45994C32.8513 5.96779 35.7995 3.98901 39.0459 2.63666C42.2924 1.28432 45.7735 0.584916 49.2904 0.578415C52.8072 0.571914 56.2909 1.25844 59.5423 2.59878C62.7938 3.93911 65.7492 5.90698 68.2399 8.38994C68.5025 8.65258 68.7109 8.96439 68.853 9.30755C68.9951 9.65071 69.0683 10.0185 69.0683 10.3899C69.0683 10.7614 68.9951 11.1292 68.853 11.4723C68.7109 11.8155 68.5025 12.1273 68.2399 12.3899C67.9772 12.6526 67.6654 12.8609 67.3223 13.0031C66.9791 13.1452 66.6113 13.2184 66.2399 13.2184C65.8684 13.2184 65.5006 13.1452 65.1575 13.0031C64.8143 12.8609 64.5025 12.6526 64.2399 12.3899C60.2669 8.42893 54.8832 6.2084 49.2731 6.21684C43.6629 6.22528 38.2859 8.462 34.3249 12.4349C30.3639 16.4079 28.1433 21.7916 28.1518 27.4018C28.1602 33.0119 30.3969 38.3889 34.3699 42.3499C36.3379 44.3114 38.6732 45.8658 41.2423 46.9244C43.8113 47.9829 46.5637 48.5249 49.3423 48.5193C52.1209 48.5138 54.8711 47.9607 57.4359 46.8919C60.0007 45.823 62.3297 44.2592 64.2899 42.2899C64.8203 41.7595 65.5397 41.4615 66.2899 41.4615C67.04 41.4615 67.7594 41.7595 68.2899 42.2899C68.8203 42.8204 69.1183 43.5398 69.1183 44.2899C69.1183 45.0401 68.8203 45.7595 68.2899 46.2899C63.7836 50.8042 57.8154 53.564 51.4572 54.0735C45.0991 54.583 38.7676 52.809 33.5999 49.0699V49.0499Z" fill="url(#paint0_linear_58_4309)"/>
<path d="M40.1303 39.99C39.474 39.5192 38.8585 38.994 38.2903 38.42C35.3729 35.5199 33.7271 31.5796 33.7149 27.466C33.7027 23.3524 35.3252 19.4024 38.2253 16.485C41.1254 13.5676 45.0657 11.9218 49.1793 11.9096C53.2929 11.8974 57.2429 13.5199 60.1603 16.42C60.5676 16.9709 60.7636 17.6496 60.7127 18.3328C60.6618 19.016 60.3674 19.6582 59.883 20.1427C59.3985 20.6271 58.7563 20.9215 58.0731 20.9724C57.3899 21.0233 56.7112 20.8273 56.1603 20.42C54.3262 18.5862 51.8389 17.556 49.2453 17.556C46.6517 17.556 44.1644 18.5862 42.3303 20.42C40.4989 22.2554 39.4704 24.7422 39.4704 27.335C39.4704 29.9278 40.4989 32.4146 42.3303 34.25C44.1644 36.0838 46.6517 37.114 49.2453 37.114C51.8389 37.114 54.3262 36.0838 56.1603 34.25C56.7112 33.8427 57.3899 33.6467 58.0731 33.6976C58.7563 33.7485 59.3985 34.0429 59.883 34.5273C60.3674 35.0118 60.6618 35.654 60.7127 36.3372C60.7636 37.0204 60.5676 37.6991 60.1603 38.25C57.5556 40.8658 54.1023 42.4655 50.4226 42.7606C46.7429 43.0558 43.0787 42.0272 40.0903 39.86L40.1303 39.99Z" fill="#7F64FA"/>
</g>
<defs>
<linearGradient id="paint0_linear_58_4309" x1="45.8199" y1="0.579939" x2="45.8199" y2="54.1499" gradientUnits="userSpaceOnUse">
<stop stop-color="#E592FB"/>
<stop offset="1" stop-color="#A500F9"/>
</linearGradient>
<clipPath id="clip0_58_4309">
<rect width="103.26" height="76.84" fill="white" transform="translate(0.370117 0.579956)"/>
</clipPath>
</defs>
</svg>
