<svg width="28" height="42" viewBox="0 0 28 42" fill="none" xmlns="http://www.w3.org/2000/svg">
<path d="M6.97926 41.01C6.68508 40.8859 6.44062 40.6673 6.28445 40.3888C6.12827 40.1102 6.06927 39.7877 6.11676 39.4719L8.73301 22.4375H1.78988C1.56976 22.4434 1.35123 22.3987 1.15114 22.3068C0.951043 22.2149 0.774741 22.0782 0.635834 21.9074C0.496927 21.7365 0.399128 21.536 0.349982 21.3214C0.300836 21.1067 0.301657 20.8837 0.352382 20.6694L4.66488 1.9819C4.74077 1.66029 4.92514 1.37464 5.18695 1.17304C5.44877 0.971438 5.77206 0.866194 6.10238 0.875025H20.4774C20.6921 0.874295 20.9043 0.921692 21.0984 1.01373C21.2924 1.10577 21.4633 1.24012 21.5986 1.4069C21.7358 1.57556 21.833 1.77316 21.8828 1.9848C21.9326 2.19644 21.9337 2.41663 21.8861 2.62878L19.3993 13.8125H26.2274C26.4968 13.812 26.7609 13.8872 26.9897 14.0295C27.2184 14.1718 27.4026 14.3756 27.5211 14.6175C27.6241 14.8497 27.6638 15.1051 27.636 15.3576C27.6082 15.6101 27.514 15.8508 27.363 16.055L8.67551 40.4925C8.54921 40.6797 8.38057 40.8346 8.18327 40.9445C7.98597 41.0544 7.76555 41.1162 7.53988 41.125C7.34753 41.1214 7.15749 41.0825 6.97926 41.01ZM15.8055 16.6875L18.6805 3.75003H7.25238L3.60113 19.5625H12.0968L9.81113 34.34L23.3524 16.6875H15.8055Z" fill="black"/>
</svg>
